{"title":"Beyonce - Halftime Show (Live at Super Bowl 2013-02-03) 1080i -","uid":8108174,"size":1701630864,"categoryP":"video","categoryS":"hd___tv_shows","magnet":"?xt=urn:btih:f42e0828008cf3ef82fe027387e4983e55341a08&amp;dn=Beyonce+-+Halftime+Show+%28Live+at+Super+Bowl+2013-02-03%29+1080i+-+&amp;tr=udp%3A%2F%2Ftracker.openbittorrent.com%3A80&amp;tr=udp%3A%2F%2Fopen.demonii.com%3A1337&amp;tr=udp%3A%2F%2Ftracker.coppersurfer.tk%3A6969&amp;tr=udp%3A%2F%2Fexodus.desync.com%3A6969","seeders":0,"leechers":2,"uploader":"HDfan2","files":1,"time":1360122956,"description":"Format                           : MPEG-TS\nFile size                        : 1.58 GiB\nDuration                         : 13mn 18s\nOverall bit rate mode            : Variable\nOverall bit rate                 : 17.0 Mbps\n\nVideo\nID                               : 224 (0xE0)\nMenu ID                          : 1 (0x1)\nFormat                           : MPEG Video\nFormat version                   : Version 2\nFormat profile                   : Main@High\nFormat settings, BVOP            : Yes\nFormat settings, Matrix          : Custom\nCodec ID                         : 2\nDuration                         : 13mn 18s\nBit rate mode                    : Variable\nBit rate                         : 15.7 Mbps\nMaximum bit rate                 : 38.8 Mbps\nWidth                            : 1 920 pixels\nHeight                           : 1 080 pixels\nDisplay aspect ratio             : 16:9\nFrame rate                       : 29.970 fps\nStandard                         : PAL\nColor space                      : YUV\nChroma subsampling               : 4:2:0\nBit depth                        : 8 bits\nScan type                        : Interlaced\nScan order                       : Top Field First\nCompression mode                 : Lossy\nBits/(Pixel*Frame)               : 0.253\nStream size                      : 1.46 GiB (92%)\nColor primaries                  : BT.709\nTransfer characteristics         : BT.709\nMatrix coefficients              : BT.709\n\nAudio\nID                               : 128 (0x80)\nMenu ID                          : 1 (0x1)\nFormat                           : AC-3\nFormat/Info                      : Audio Coding 3\nMode extension                   : CM (complete main)\nCodec ID                         : 129\nDuration                         : 13mn 18s\nBit rate mode                    : Constant\nBit rate                         : 448 Kbps\nChannel(s)                       : 6 channels\nChannel positions                : Front: L C R, Side: L R, LFE\nSampling rate                    : 48.0 KHz\nBit depth                        : 16 bits\nCompression mode                 : Lossy\nStream size                      : 42.6 MiB (3%)\nLanguage                         : English\n\nText #1\nID                               : 224 (0xE0)-608-1\nMenu ID                          : 1 (0x1)\nFormat                           : EIA-608\nMuxing mode                      : A/53 / DTVCC Transport\nMuxing mode, more info           : Muxed in Video #1\nDuration                         : 13mn 18s\nBit rate mode                    : Constant\nStream size                      : 0.00 Byte (0%)\n\nText #2\nID                               : 224 (0xE0)-1\nMenu ID                          : 1 (0x1)\nFormat                           : EIA-708\nMuxing mode                      : A/53 / DTVCC Transport\nMuxing mode, more info           : Muxed in Video #1\nDuration                         : 13mn 18s\nBit rate mode                    : Constant\nStream size                      : 0.00 Byte (0%)\n","torrent":{"xt":"urn:btih:f42e0828008cf3ef82fe027387e4983e55341a08","amp;dn":"Beyonce+-+Halftime+Show+%28Live+at+Super+Bowl+2013-02-03%29+1080i+-+","amp;tr":["udp%3A%2F%2Ftracker.openbittorrent.com%3A80","udp%3A%2F%2Fopen.demonii.com%3A1337","udp%3A%2F%2Ftracker.coppersurfer.tk%3A6969","udp%3A%2F%2Fexodus.desync.com%3A6969"],"infoHash":"f42e0828008cf3ef82fe027387e4983e55341a08","infoHashBuffer":{"type":"Buffer","data":[244,46,8,40,0,140,243,239,130,254,2,115,135,228,152,62,85,52,26,8]},"announce":[],"urlList":[]}}